<?xml version="1.0" encoding="UTF-8"?>
<svg width="115px" height="41px" viewBox="0 0 115 41" version="1.1" xmlns="http://www.w3.org/2000/svg" xmlns:xlink="http://www.w3.org/1999/xlink">
    <title>fri-son@4x</title>
    <g id="Page-1" stroke="none" stroke-width="1" fill="none" fill-rule="evenodd">
        <g id="Extra-Large" transform="translate(-1160.000000, -9247.000000)" fill="#F4F4F4" fill-rule="nonzero">
            <g id="fri-son" transform="translate(1160.000000, 9247.000000)">
                <g id="Group" transform="translate(0.000000, 1.000000)">
                    <path d="M78.1212123,15.5954286 C72.7810531,15.5954286 68.2802095,19.0125714 66.6033008,23.7502857 C65.7174842,21.2691429 64.063539,19.1451429 61.9141565,17.6925714 C60.1482643,16.4954286 58.9788486,14.4977143 58.9788486,12.2285714 C58.9788486,8.628 61.957213,5.69028571 65.6009445,5.69028571 L65.6009445,0.0537142857 C58.849679,0.0537142857 53.3252379,5.47657143 53.3252379,12.2291429 C53.3252379,16.4314286 55.4608423,20.1445714 58.7021386,22.3462857 L58.7021386,22.3548571 C60.4783644,23.5394286 61.6466319,25.5508571 61.6466319,27.8262857 C61.6466319,31.4211429 58.6682675,34.3628571 55.0262582,34.3628571 C51.4026198,34.3628571 48.4587007,31.4211429 48.4587007,27.8262857 L42.7941823,27.8262857 C42.7936082,34.5228571 48.2945117,40 55.0251101,40 C60.3589543,40 64.9149103,36.6068571 66.6021526,31.8582857 C68.2848022,36.588 72.819517,40 78.1212123,40 C84.880515,40 90.4061043,34.576 90.4061043,27.8245714 C90.4066784,21.0742857 84.9011821,15.5954286 78.1212123,15.5954286 M78.1212123,34.3622857 C74.5079074,34.3622857 71.5548029,31.42 71.5548029,27.8251429 C71.5548029,24.1977143 74.5090556,21.2348571 78.1212123,21.2348571 C81.7649437,21.2348571 84.7415859,24.1994286 84.7415859,27.8251429 C84.7415859,31.4194286 81.7649437,34.3622857 78.1212123,34.3622857" id="Shape"></path>
                    <path d="M109.260276,39.4548571 L115,39.4548571 L115,27.8245714 C115,21.0742857 109.422743,15.5942857 102.693867,15.5942857 C95.9093042,15.5942857 90.4061043,21.0742857 90.4061043,27.8245714 L90.4061043,39.4674286 L96.0729191,39.4674286 L96.0729191,27.8245714 C96.0729191,24.2297143 99.0501353,21.2342857 102.693867,21.2342857 C106.304875,21.2342857 109.260276,24.2297143 109.260276,27.8245714 L109.260276,39.4548571 L109.260276,39.4548571 Z" id="Path"></path>
                    <path d="M33.1288501,15.0777143 L33.1288501,15.0777143 C29.3634122,15.0777143 25.9831867,16.8011429 23.7339131,19.4885714 C21.4863617,16.8005714 18.0952286,15.0777143 14.3292165,15.0777143 L12.8073114,15.0777143 L12.8073114,12.1754286 C12.8073114,8.58057143 15.7845276,5.64 19.4288332,5.64 L19.4288332,0 C12.6775677,0 7.14221887,5.42628571 7.14221887,12.1754286 L7.14221887,15.0777143 L0,15.0777143 L0,20.716 L7.14221887,20.716 L7.14221887,39.4994286 L12.8073114,39.4994286 L12.8073114,20.716 L14.3292165,20.716 C17.9511327,20.716 20.895626,23.6485714 20.895626,27.2531429 L20.895626,39.4731429 L26.5624407,39.4731429 L26.5624407,27.2531429 C26.5624407,23.648 29.5172675,20.716 33.1288501,20.716 L34.6530516,20.716 L34.6530516,39.4731429 L40.3164219,39.4731429 L40.3164219,15.0777143 L33.1288501,15.0777143 Z" id="Path"></path>
                    <polygon id="Path" points="51.7832396 15.0777143 42.7677742 20.716 42.7677742 26.496 51.7832396 20.9988571"></polygon>
                </g>
                <rect id="Rectangle" x="35" y="0" width="6" height="14"></rect>
            </g>
        </g>
    </g>
</svg>