<?xml version="1.0" encoding="UTF-8"?>
<svg width="59px" height="57px" viewBox="0 0 59 57" version="1.1" xmlns="http://www.w3.org/2000/svg" xmlns:xlink="http://www.w3.org/1999/xlink">
    <title>etat_de_fribourg@4x</title>
    <g id="Page-1" stroke="none" stroke-width="1" fill="none" fill-rule="evenodd">
        <g id="Extra-Large" transform="translate(-928.000000, -9239.000000)" fill="#F4F4F4" fill-rule="nonzero">
            <g id="etat_de_fribourg" transform="translate(928.000000, 9239.000000)">
                <path d="M0,26.8431326 L0,28 C3.6585728,27.1516306 7.56659375,25.0692692 9.72847768,23.2182814 C11.1420172,21.9842895 12.3892579,20.5189241 13.3870505,18.8221852 C13.3870505,18.8221852 13.4701999,18.7450607 13.4701999,18.6679362 C14.3848431,17.1254463 15.0500381,15.2744585 15.5489344,13.1149726 C16.8793245,7.17638657 14.8837394,1.23780052 14.4679924,0.466555582 C13.9690962,-0.0733158772 13.3039011,0.003808617 12.8050048,0.003808617 C12.7218554,0.003808617 12.5555567,0.003808617 12.4724073,0.003808617 L0,0.003808617 L0,13.5777196 L9.56217891,13.5777196 C9.64532829,13.5777196 9.81162706,13.5777196 9.81162706,13.5777196 C10.1442246,13.6548441 10.3936727,13.8090931 10.3936727,14.117591 C10.3936727,14.1947155 10.3936727,14.27184 10.3936727,14.3489645 C10.3936727,17.0483218 8.98013324,22.3699119 0.748344437,25.7633897 L0,26.0718876 L0,26.8431326 Z" id="Path"></path>
                <g id="Group" transform="translate(1.000000, 35.000000)">
                    <polygon id="Path" points="0.314789688 0.0777385159 3.38398915 0.0777385159 3.38398915 0.544169611 0.944369064 0.544169611 0.944369064 1.9434629 3.2265943 1.9434629 3.2265943 2.40989399 0.944369064 2.40989399 0.944369064 3.8869258 3.38398915 3.8869258 3.38398915 4.35335689 0.314789688 4.35335689"></polygon>
                    <polygon id="Path" points="5.19402985 0.544169611 3.77747626 0.544169611 3.77747626 0.0777385159 7.31886024 0.0777385159 7.31886024 0.544169611 5.82360923 0.544169611 5.82360923 4.43109541 5.19402985 4.43109541"></polygon>
                    <path d="M8.49932157,0.0777385159 L9.12890095,0.0777385159 L10.8602442,4.43109541 L10.2306649,4.43109541 L9.75848033,3.10954064 L7.8697422,3.10954064 L7.39755767,4.43109541 L6.76797829,4.43109541 L8.49932157,0.0777385159 Z M8.02713704,2.64310954 L9.52238806,2.64310954 L8.81411126,0.621908127 L8.81411126,0.621908127 L8.02713704,2.64310954 Z" id="Shape"></path>
                    <polygon id="Path" points="11.8833107 0.544169611 10.3880597 0.544169611 10.3880597 0.0777385159 13.9294437 0.0777385159 13.9294437 0.544169611 12.4341927 0.544169611 12.4341927 4.43109541 11.8833107 4.43109541"></polygon>
                    <path d="M16.3690638,0.0777385159 L17.8643148,0.0777385159 C19.202171,0.0777385159 19.9891452,0.777385159 19.9891452,2.17667845 C19.9891452,3.65371025 19.3595658,4.43109541 17.8643148,4.43109541 L16.3690638,4.43109541 L16.3690638,0.0777385159 Z M16.9199457,3.96466431 L17.8643148,3.96466431 C18.2578019,3.96466431 19.3595658,3.8869258 19.3595658,2.25441696 C19.3595658,1.24381625 18.9660787,0.621908127 17.8643148,0.621908127 L16.8412483,0.621908127 L16.8412483,3.96466431 L16.9199457,3.96466431 Z" id="Shape"></path>
                    <polygon id="Path" points="20.7761194 0.0777385159 23.8453189 0.0777385159 23.8453189 0.544169611 21.4056988 0.544169611 21.4056988 1.9434629 23.687924 1.9434629 23.687924 2.40989399 21.4056988 2.40989399 21.4056988 3.8869258 23.8453189 3.8869258 23.8453189 4.35335689 20.7761194 4.35335689 20.7761194 0.0777385159"></polygon>
                    <polygon id="Path" points="26.5210312 0.0777385159 29.4328358 0.0777385159 29.4328358 0.544169611 27.1506106 0.544169611 27.1506106 1.9434629 29.1967436 1.9434629 29.1967436 2.40989399 27.1506106 2.40989399 27.1506106 4.43109541 26.5997286 4.43109541 26.5997286 0.0777385159"></polygon>
                    <path d="M30.1411126,0.0777385159 L32.1872456,0.0777385159 C32.9742198,0.0777385159 33.5251018,0.544169611 33.5251018,1.24381625 C33.5251018,1.78798587 33.2890095,2.17667845 32.7381275,2.33215548 L32.7381275,2.33215548 C33.2890095,2.40989399 33.3677069,2.79858657 33.3677069,3.26501767 C33.3677069,3.65371025 33.3677069,4.19787986 33.6037992,4.43109541 L32.9742198,4.43109541 C32.816825,4.27561837 32.8955224,3.80918728 32.816825,3.34275618 C32.7381275,2.9540636 32.6594301,2.56537102 32.1085482,2.56537102 L30.770692,2.56537102 L30.770692,4.43109541 L30.21981,4.43109541 L30.21981,0.0777385159 L30.1411126,0.0777385159 Z M31.9511533,2.09893993 C32.5020353,2.09893993 32.9742198,1.9434629 32.9742198,1.32155477 C32.9742198,0.932862191 32.7381275,0.544169611 32.1872456,0.544169611 L30.770692,0.544169611 L30.770692,2.02120141 L31.9511533,2.02120141 L31.9511533,2.09893993 Z" id="Shape"></path>
                    <polygon id="Path" points="34.5481682 0.0777385159 35.0990502 0.0777385159 35.0990502 4.43109541 34.5481682 4.43109541"></polygon>
                    <path d="M36.2008141,0.0777385159 L37.7747626,0.0777385159 C38.1682497,0.0777385159 38.6404342,0.0777385159 38.9552239,0.233215548 C39.2700136,0.38869258 39.5061058,0.699646643 39.5061058,1.16607774 C39.5061058,1.63250883 39.2700136,1.9434629 38.8765265,2.17667845 L38.8765265,2.17667845 C39.4274084,2.25441696 39.7421981,2.72084806 39.7421981,3.18727915 C39.7421981,3.80918728 39.2700136,4.43109541 38.4043419,4.43109541 L36.2795115,4.43109541 L36.2795115,0.0777385159 L36.2008141,0.0777385159 Z M36.8303935,1.9434629 L38.0108548,1.9434629 C38.6404342,1.9434629 38.9552239,1.71024735 38.9552239,1.24381625 C38.9552239,0.621908127 38.5617368,0.544169611 38.0108548,0.544169611 L36.8303935,0.544169611 L36.8303935,1.9434629 Z M36.8303935,3.96466431 L38.3256445,3.96466431 C38.797829,3.96466431 39.1126187,3.65371025 39.1126187,3.18727915 C39.1126187,2.64310954 38.6404342,2.48763251 38.1682497,2.48763251 L36.8303935,2.48763251 L36.8303935,3.96466431 L36.8303935,3.96466431 Z" id="Shape"></path>
                    <path d="M42.4179104,0 C43.834464,0 44.5427408,1.08833922 44.5427408,2.25441696 C44.5427408,3.4204947 43.834464,4.50883392 42.4179104,4.50883392 C41.0013569,4.50883392 40.2930801,3.4204947 40.2930801,2.25441696 C40.2930801,1.08833922 41.0013569,0 42.4179104,0 Z M42.4179104,4.04240283 C43.5196744,4.04240283 43.9131615,3.10954064 43.9131615,2.25441696 C43.9131615,1.39929329 43.4409769,0.466431095 42.4179104,0.466431095 C41.3161465,0.466431095 40.9226594,1.39929329 40.9226594,2.25441696 C40.9226594,3.10954064 41.3161465,4.04240283 42.4179104,4.04240283 Z" id="Shape"></path>
                    <path d="M48.8710991,2.87632509 C48.8710991,3.96466431 48.2415197,4.58657244 47.1397558,4.58657244 C46.0379919,4.58657244 45.3297151,4.04240283 45.3297151,2.87632509 L45.3297151,0.0777385159 L45.880597,0.0777385159 L45.880597,2.87632509 C45.880597,3.65371025 46.3527815,4.04240283 47.0610583,4.04240283 C47.7693351,4.04240283 48.2415197,3.65371025 48.2415197,2.87632509 L48.2415197,0.0777385159 L48.8710991,0.0777385159 L48.8710991,2.87632509 Z" id="Path"></path>
                    <path d="M49.8941655,0.0777385159 L52.0189959,0.0777385159 C52.8059701,0.0777385159 53.3568521,0.544169611 53.3568521,1.24381625 C53.3568521,1.78798587 53.1207598,2.17667845 52.5698779,2.33215548 L52.5698779,2.33215548 C53.1207598,2.40989399 53.1994573,2.79858657 53.1994573,3.26501767 C53.1994573,3.65371025 53.1994573,4.19787986 53.4355495,4.43109541 L52.8059701,4.43109541 C52.6485753,4.27561837 52.7272727,3.80918728 52.6485753,3.34275618 C52.5698779,2.9540636 52.4911805,2.56537102 51.9402985,2.56537102 L50.5237449,2.56537102 L50.5237449,4.43109541 L49.972863,4.43109541 L49.972863,0.0777385159 L49.8941655,0.0777385159 Z M51.7042062,2.09893993 C52.2550882,2.09893993 52.7272727,1.9434629 52.7272727,1.32155477 C52.7272727,0.932862191 52.4911805,0.544169611 51.9402985,0.544169611 L50.5237449,0.544169611 L50.5237449,2.02120141 L51.7042062,2.02120141 L51.7042062,2.09893993 Z" id="Shape"></path>
                    <path d="M57.5278155,3.8869258 C57.2130258,4.35335689 56.6621438,4.50883392 56.1112619,4.50883392 C54.7734057,4.50883392 53.9864315,3.4204947 53.9864315,2.33215548 C53.9864315,1.08833922 54.6947083,0 56.1112619,0 C57.0556309,0 57.8426052,0.38869258 58,1.4770318 L57.449118,1.4770318 C57.3704206,0.855123675 56.8195387,0.544169611 56.1112619,0.544169611 C55.009498,0.544169611 54.6160109,1.4770318 54.6160109,2.40989399 C54.6160109,3.34275618 55.1668928,4.12014134 56.1112619,4.12014134 C57.0556309,4.12014134 57.5278155,3.49823322 57.5278155,2.72084806 L56.1112619,2.72084806 L56.1112619,2.25441696 L58,2.25441696 L58,4.50883392 L57.6065129,4.50883392 L57.5278155,3.8869258 Z" id="Path"></path>
                    <path d="M2.83310719,10.0282686 C2.75440977,9.40636042 2.36092266,9.17314488 1.73134328,9.17314488 C1.25915875,9.17314488 0.708276798,9.32862191 0.708276798,9.95053004 C0.708276798,10.4946996 1.4165536,10.5724382 2.12483039,10.7279152 C2.83310719,10.8833922 3.54138399,11.1166078 3.54138399,11.9717314 C3.54138399,12.9045936 2.59701493,13.2932862 1.81004071,13.2932862 C0.78697422,13.2932862 0,12.8268551 0,11.7385159 L0.550881954,11.7385159 C0.550881954,12.4381625 1.18046133,12.7491166 1.81004071,12.7491166 C2.36092266,12.7491166 2.91180461,12.5936396 2.91180461,11.9717314 C2.91180461,11.3498233 2.20352782,11.2720848 1.49525102,11.1166078 C0.78697422,10.9611307 0.078697422,10.7279152 0.078697422,9.95053004 C0.078697422,9.09540636 0.865671642,8.70671378 1.65264586,8.70671378 C2.5183175,8.70671378 3.2265943,9.09540636 3.30529172,10.1060071 L2.83310719,10.1060071 L2.83310719,10.0282686 Z" id="Path"></path>
                    <polygon id="Path" points="5.19402985 9.25088339 3.69877883 9.25088339 3.69877883 8.7844523 7.24016282 8.7844523 7.24016282 9.25088339 5.7449118 9.25088339 5.7449118 13.1378092 5.19402985 13.1378092"></polygon>
                    <path d="M8.49932157,8.7844523 L9.12890095,8.7844523 L10.8602442,13.1378092 L10.2306649,13.1378092 L9.75848033,11.8162544 L7.8697422,11.8162544 L7.39755767,13.1378092 L6.76797829,13.1378092 L8.49932157,8.7844523 Z M8.02713704,11.3498233 L9.52238806,11.3498233 L8.81411126,9.32862191 L8.81411126,9.32862191 L8.02713704,11.3498233 Z" id="Shape"></path>
                    <path d="M12.5915875,8.7844523 L13.2211669,8.7844523 L14.9525102,13.1378092 L14.3229308,13.1378092 L13.8507463,11.8162544 L11.9620081,11.8162544 L11.4898236,13.1378092 L10.8602442,13.1378092 L12.5915875,8.7844523 Z M12.119403,11.3498233 L13.614654,11.3498233 L12.9063772,9.32862191 L12.9063772,9.32862191 L12.119403,11.3498233 Z" id="Shape"></path>
                    <polygon id="Path" points="15.9755767 9.25088339 14.4803256 9.25088339 14.4803256 8.7844523 18.0217096 8.7844523 18.0217096 9.25088339 16.5264586 9.25088339 16.5264586 13.1378092 15.9755767 13.1378092 15.9755767 9.25088339"></polygon>
                    <polygon id="Path" points="20.4613297 8.7844523 23.3731343 8.7844523 23.3731343 9.25088339 21.0909091 9.25088339 21.0909091 10.6501767 23.1370421 10.6501767 23.1370421 11.1166078 21.0909091 11.1166078 21.0909091 13.1378092 20.5400271 13.1378092 20.5400271 8.7844523"></polygon>
                    <path d="M24.0814111,8.7844523 L26.1275441,8.7844523 C26.9145183,8.7844523 27.4654003,9.25088339 27.4654003,9.95053004 C27.4654003,10.4946996 27.229308,10.8833922 26.6784261,11.0388693 L26.6784261,11.0388693 C27.1506106,11.1166078 27.3080054,11.5053004 27.3080054,11.9717314 C27.3080054,12.360424 27.3080054,12.9045936 27.5440977,13.1378092 L26.9145183,13.1378092 C26.7571235,12.9823322 26.8358209,12.5159011 26.7571235,12.04947 C26.6784261,11.6607774 26.5997286,11.2720848 26.0488467,11.2720848 L24.6322931,11.2720848 L24.6322931,13.1378092 L24.0814111,13.1378092 L24.0814111,8.7844523 Z M25.8914518,10.8056537 C26.4423338,10.8056537 26.9145183,10.6501767 26.9145183,10.0282686 C26.9145183,9.63957597 26.6784261,9.25088339 26.1275441,9.25088339 L24.7109905,9.25088339 L24.7109905,10.7279152 L25.8914518,10.7279152 L25.8914518,10.8056537 Z" id="Shape"></path>
                    <polygon id="Path" points="28.4097693 8.7844523 31.4789688 8.7844523 31.4789688 9.25088339 29.0393487 9.25088339 29.0393487 10.6501767 31.3215739 10.6501767 31.3215739 11.1166078 29.0393487 11.1166078 29.0393487 12.5936396 31.4789688 12.5936396 31.4789688 13.0600707 28.4097693 13.0600707"></polygon>
                    <polygon id="Path" points="32.3446404 8.7844523 32.8955224 8.7844523 32.8955224 13.1378092 32.3446404 13.1378092"></polygon>
                    <path d="M33.9972863,8.7844523 L35.5712347,8.7844523 C35.9647218,8.7844523 36.4369064,8.7844523 36.7516961,8.93992933 C37.0664858,9.09540636 37.302578,9.40636042 37.302578,9.87279152 C37.302578,10.3392226 37.0664858,10.6501767 36.6729986,10.8833922 L36.6729986,10.8833922 C37.2238806,10.9611307 37.5386703,11.4275618 37.5386703,11.8939929 C37.5386703,12.5159011 37.0664858,13.1378092 36.2008141,13.1378092 L34.0759837,13.1378092 L34.0759837,8.7844523 L33.9972863,8.7844523 Z M34.6268657,10.6501767 L35.807327,10.6501767 C36.4369064,10.6501767 36.7516961,10.4169611 36.7516961,9.95053004 C36.7516961,9.32862191 36.358209,9.25088339 35.807327,9.25088339 L34.6268657,9.25088339 L34.6268657,10.6501767 Z M34.6268657,12.6713781 L36.1221167,12.6713781 C36.5943012,12.6713781 36.9090909,12.360424 36.9090909,11.8939929 C36.9090909,11.3498233 36.4369064,11.1943463 35.9647218,11.1943463 L34.6268657,11.1943463 L34.6268657,12.6713781 L34.6268657,12.6713781 Z" id="Shape"></path>
                    <path d="M41.8670285,11.5830389 C41.8670285,12.6713781 41.2374491,13.2932862 40.1356852,13.2932862 C39.0339213,13.2932862 38.3256445,12.7491166 38.3256445,11.5830389 L38.3256445,8.7844523 L38.8765265,8.7844523 L38.8765265,11.5830389 C38.8765265,12.360424 39.348711,12.7491166 40.0569878,12.7491166 C40.7652646,12.7491166 41.2374491,12.360424 41.2374491,11.5830389 L41.2374491,8.7844523 L41.7883311,8.7844523 L41.7883311,11.5830389 L41.8670285,11.5830389 Z" id="Path"></path>
                    <path d="M42.890095,8.7844523 L44.936228,8.7844523 C45.7232022,8.7844523 46.2740841,9.25088339 46.2740841,9.95053004 C46.2740841,10.4946996 46.0379919,10.8833922 45.4871099,11.0388693 L45.4871099,11.0388693 C45.9592944,11.1166078 46.1166893,11.5053004 46.1166893,11.9717314 C46.1166893,12.360424 46.1166893,12.9045936 46.3527815,13.1378092 L45.7232022,13.1378092 C45.5658073,12.9823322 45.6445047,12.5159011 45.5658073,12.04947 C45.4871099,11.6607774 45.4084125,11.2720848 44.8575305,11.2720848 L43.4409769,11.2720848 L43.4409769,13.1378092 L42.890095,13.1378092 L42.890095,8.7844523 Z M44.7001357,10.8056537 C45.2510176,10.8056537 45.7232022,10.6501767 45.7232022,10.0282686 C45.7232022,9.63957597 45.4871099,9.25088339 44.936228,9.25088339 L43.5196744,9.25088339 L43.5196744,10.7279152 L44.7001357,10.7279152 L44.7001357,10.8056537 Z" id="Shape"></path>
                    <path d="M50.5237449,12.5936396 C50.2089552,13.0600707 49.6580733,13.2155477 49.1071913,13.2155477 C47.7693351,13.2155477 46.9823609,12.1272085 46.9823609,11.0388693 C46.9823609,9.795053 47.6906377,8.70671378 49.1071913,8.70671378 C50.0515604,8.70671378 50.8385346,9.09540636 50.9959294,10.1837456 L50.4450475,10.1837456 C50.3663501,9.56183746 49.8154681,9.25088339 49.1071913,9.25088339 C48.0054274,9.25088339 47.6119403,10.1837456 47.6119403,11.1166078 C47.6119403,12.04947 48.1628223,12.8268551 49.1071913,12.8268551 C50.0515604,12.8268551 50.5237449,12.204947 50.5237449,11.4275618 L49.1071913,11.4275618 L49.1071913,10.9611307 L50.9959294,10.9611307 L50.9959294,13.2155477 L50.6024423,13.2155477 L50.5237449,12.5936396 Z" id="Path"></path>
                    <polygon id="Path" points="3.06919946 21.844523 2.67571235 21.844523 1.96743555 19.3568905 1.96743555 19.3568905 1.25915875 21.844523 0.865671642 21.844523 0.078697422 18.8904594 0.472184532 18.8904594 1.10176391 21.3003534 1.10176391 21.3003534 1.81004071 18.8127208 2.28222524 18.8127208 2.83310719 21.3003534 2.83310719 21.3003534 3.46268657 18.8127208 3.85617368 18.8127208"></polygon>
                    <polygon id="Path" points="7.08276798 21.844523 6.68928087 21.844523 5.98100407 19.3568905 5.98100407 19.3568905 5.27272727 21.844523 4.87924016 21.844523 4.09226594 18.8904594 4.48575305 18.8904594 5.11533243 21.3003534 5.11533243 21.3003534 5.82360923 18.8127208 6.29579376 18.8127208 6.84667571 21.3003534 6.84667571 21.3003534 7.47625509 18.8127208 7.8697422 18.8127208"></polygon>
                    <polygon id="Path" points="11.0963365 21.844523 10.7028494 21.844523 9.99457259 19.3568905 9.99457259 19.3568905 9.28629579 21.844523 8.89280868 21.844523 8.10583446 18.8904594 8.49932157 18.8904594 9.12890095 21.3780919 9.12890095 21.3780919 9.83717775 18.8904594 10.3093623 18.8904594 10.9389417 21.3780919 10.9389417 21.3780919 11.568521 18.8904594 11.8833107 18.8904594"></polygon>
                    <polygon id="Path" points="12.0407056 21.3780919 12.5128901 21.3780919 12.5128901 21.844523 12.0407056 21.844523"></polygon>
                    <polygon id="Path" points="13.2998643 18.8127208 15.2672999 18.8127208 15.2672999 19.1236749 13.6933514 19.1236749 13.6933514 20.0565371 15.109905 20.0565371 15.109905 20.3674912 13.6933514 20.3674912 13.6933514 21.7667845 13.2998643 21.7667845"></polygon>
                    <path d="M15.8181818,18.8127208 L17.2347354,18.8127208 C17.7856174,18.8127208 18.1791045,19.1236749 18.1791045,19.590106 C18.1791045,19.9787986 18.0217096,20.2120141 17.6282225,20.3674912 L17.6282225,20.3674912 C17.9430122,20.4452297 18.0217096,20.6784452 18.1004071,20.9893993 C18.1004071,21.3003534 18.1004071,21.6113074 18.2578019,21.844523 L17.7856174,21.844523 C17.7069199,21.6890459 17.7069199,21.3780919 17.7069199,21.1448763 C17.6282225,20.8339223 17.6282225,20.6007067 17.2347354,20.6007067 L16.2903664,20.6007067 L16.2903664,21.844523 L15.8181818,21.844523 L15.8181818,18.8127208 Z M17.0773406,20.2120141 C17.4708277,20.2120141 17.7856174,20.1342756 17.7856174,19.6678445 C17.7856174,19.3568905 17.6282225,19.1236749 17.2347354,19.1236749 L16.2116689,19.1236749 L16.2116689,20.1342756 L17.0773406,20.1342756 L17.0773406,20.2120141 Z" id="Shape"></path>
                    <polygon id="Path" points="18.8086839 21.3780919 19.2808684 21.3780919 19.2808684 21.844523 18.8086839 21.844523"></polygon>
                    <path d="M22.192673,19.745583 C22.1139756,19.3568905 21.7991859,19.1236749 21.3270014,19.1236749 C20.6187246,19.1236749 20.3039349,19.745583 20.3039349,20.3674912 C20.3039349,21.0671378 20.6187246,21.6113074 21.3270014,21.6113074 C21.8778833,21.6113074 22.192673,21.2226148 22.192673,20.7561837 L22.5861601,20.7561837 C22.5074627,21.5335689 22.0352782,21.9222615 21.2483039,21.9222615 C20.3039349,21.9222615 19.8317503,21.2226148 19.8317503,20.3674912 C19.8317503,19.5123675 20.3039349,18.8127208 21.2483039,18.8127208 C21.8778833,18.8127208 22.4287653,19.1236749 22.5074627,19.745583 L22.192673,19.745583 Z" id="Path"></path>
                    <polygon id="Path" points="23.2157395 18.8127208 23.6092266 18.8127208 23.6092266 20.0565371 25.183175 20.0565371 25.183175 18.8127208 25.5766621 18.8127208 25.5766621 21.7667845 25.183175 21.7667845 25.183175 20.3674912 23.6092266 20.3674912 23.6092266 21.7667845 23.2157395 21.7667845"></polygon>
                </g>
            </g>
        </g>
    </g>
</svg>