<?xml version="1.0" encoding="UTF-8"?>
<svg width="115px" height="42px" viewBox="0 0 115 42" version="1.1" xmlns="http://www.w3.org/2000/svg" xmlns:xlink="http://www.w3.org/1999/xlink">
    <title>eikon_simple@4x</title>
    <defs>
        <polygon id="path-1" points="0 0 23 0 23 26 0 26"></polygon>
        <polygon id="path-3" points="0 42 115 42 115 0 0 0"></polygon>
        <polygon id="path-5" points="0 42 115 42 115 0 0 0"></polygon>
        <polygon id="path-7" points="0 42 115 42 115 0 0 0"></polygon>
        <polygon id="path-9" points="0 42 115 42 115 0 0 0"></polygon>
        <polygon id="path-11" points="0 42 115 42 115 0 0 0"></polygon>
        <polygon id="path-13" points="0 42 115 42 115 0 0 0"></polygon>
    </defs>
    <g id="Page-1" stroke="none" stroke-width="1" fill="none" fill-rule="evenodd">
        <g id="Extra-Large" transform="translate(-1016.000000, -9247.000000)">
            <g id="eikon_simple" transform="translate(1016.000000, 9247.000000)">
                <g id="Fill-1-Clipped" transform="translate(0.000000, 10.000000)">
                    <mask id="mask-2" fill="white">
                        <use xlink:href="#path-1"></use>
                    </mask>
                    <g id="path-1_00000042001445507911045480000000188827111244874632_"></g>
                    <path d="M17.5940171,10.4194757 C17.5940171,7.01123596 15.2350427,4.77153558 11.7948718,4.77153558 C8.45299145,4.77153558 5.8974359,6.71910112 5.8974359,10.4194757 L17.5940171,10.4194757 Z M11.8931624,0 C18.1837607,0 23.0982906,4.86891386 23.0982906,11.1011236 C23.0982906,11.9775281 23.0982906,13.0486891 22.8034188,14.7041199 L5.7008547,14.7041199 C5.7008547,18.2097378 7.47008547,21.1310861 11.991453,21.1310861 C15.2350427,21.1310861 16.4145299,19.670412 17.1025641,17.917603 L22.8034188,17.917603 C22.017094,22.2022472 18.1837607,26 11.991453,26 C3.93162393,26 0,19.670412 0,12.9513109 C0,5.5505618 4.32478632,0 11.8931624,0 L11.8931624,0 Z" id="Fill-1" fill="#F4F4F4" mask="url(#mask-2)"></path>
                </g>
                <g id="Fill-4-Clipped">
                    <mask id="mask-4" fill="white">
                        <use xlink:href="#path-3"></use>
                    </mask>
                    <g id="path-3_00000150085872863131780960000007474121170675010490_"></g>
                    <path d="M28.5550847,35.8348624 L34.5,35.8348624 L34.5,12.0412844 L28.5550847,12.0412844 L28.5550847,35.8348624 L28.5550847,35.8348624 Z M31.4788136,0 C33.720339,0 35.4745763,1.63761468 35.4745763,3.75688073 C35.4745763,5.77981651 33.720339,7.41743119 31.4788136,7.41743119 C29.3347458,7.41743119 27.5805085,5.77981651 27.5805085,3.75688073 C27.5805085,1.63761468 29.3347458,0 31.4788136,0 L31.4788136,0 Z" id="Fill-4" fill="#F4F4F4" mask="url(#mask-4)"></path>
                </g>
                <g id="Fill-6-Clipped">
                    <mask id="mask-6" fill="white">
                        <use xlink:href="#path-5"></use>
                    </mask>
                    <g id="path-3_00000013881412803445256650000004712554305429514122_"></g>
                    <polygon id="Fill-6" fill="#F4F4F4" mask="url(#mask-6)" points="40.1525424 35.8348624 40.1525424 0 45.9025424 0 45.9025424 22.5412844 55.0635593 11.9449541 62.1779661 11.9449541 51.9449153 23.8899083 62.1779661 35.8348624 55.0635593 35.8348624 45.9025424 25.3348624 45.9025424 35.8348624"></polygon>
                </g>
                <g id="Fill-7-Clipped">
                    <mask id="mask-8" fill="white">
                        <use xlink:href="#path-7"></use>
                    </mask>
                    <g id="path-3_00000062878665275670434170000011894802918630732977_"></g>
                    <path d="M73.970339,31.5 C78.4533898,31.5 81.4745763,27.9357798 81.4745763,23.6972477 C81.4745763,19.4587156 78.4533898,15.8944954 73.970339,15.8944954 C69.4872881,15.8944954 66.5635593,19.4587156 66.5635593,23.6972477 C66.5635593,27.9357798 69.4872881,31.5 73.970339,31.5 M73.970339,10.8853211 C82.059322,10.8853211 87.4194915,16.7614679 87.4194915,23.6972477 C87.4194915,30.6330275 82.059322,36.6055046 73.970339,36.6055046 C65.8813559,36.6055046 60.6186441,30.7293578 60.6186441,23.793578 C60.6186441,16.8577982 65.9788136,10.8853211 73.970339,10.8853211" id="Fill-7" fill="#F4F4F4" mask="url(#mask-8)"></path>
                </g>
                <g id="Fill-8-Clipped">
                    <mask id="mask-10" fill="white">
                        <use xlink:href="#path-9"></use>
                    </mask>
                    <g id="path-3_00000146462141249995907690000000775152237751439009_"></g>
                    <path d="M90.5381356,35.8348624 L90.5381356,11.559633 L96.2881356,11.559633 L96.2881356,14.9311927 C97.8474576,12.233945 100.673729,10.8853211 104.377119,10.8853211 C107.983051,10.8853211 110.322034,12.1376147 111.783898,14.1605505 C113.050847,15.9908257 113.34322,18.0137615 113.34322,21.3853211 L113.34322,35.8348624 L107.59322,35.8348624 L107.59322,23.3119266 C107.59322,19.1697248 106.326271,15.9908257 102.233051,15.9908257 C98.2372881,15.9908257 96.2881356,19.1697248 96.2881356,23.3119266 L96.2881356,35.8348624 L90.5381356,35.8348624 Z" id="Fill-8" fill="#F4F4F4" mask="url(#mask-10)"></path>
                </g>
                <g id="Fill-9-Clipped">
                    <mask id="mask-12" fill="white">
                        <use xlink:href="#path-11"></use>
                    </mask>
                    <g id="path-3_00000179617424586344932120000007865450818516403332_"></g>
                    <polygon id="Fill-9" fill="#F4F4F4" mask="url(#mask-12)" points="50.7754237 39.6880734 0.779661017 39.6880734 0.779661017 42 51.9449153 42"></polygon>
                </g>
                <g id="Fill-10-Clipped">
                    <mask id="mask-14" fill="white">
                        <use xlink:href="#path-13"></use>
                    </mask>
                    <g id="path-3_00000039814805741734663330000000799068742066793146_"></g>
                    <polygon id="Fill-10" fill="#F4F4F4" mask="url(#mask-14)" points="52.8220339 39.6880734 53.9915254 42 115 42 115 39.6880734"></polygon>
                </g>
            </g>
        </g>
    </g>
</svg>