<?xml version="1.0" encoding="UTF-8"?>
<svg width="164px" height="57px" viewBox="0 0 164 57" version="1.1" xmlns="http://www.w3.org/2000/svg" xmlns:xlink="http://www.w3.org/1999/xlink">
    <title>lotterie_romande_black@4x</title>
    <g id="Page-1" stroke="none" stroke-width="1" fill="none" fill-rule="evenodd">
        <g id="Extra-Large" transform="translate(-735.000000, -9239.000000)" fill="#F4F4F4" fill-rule="nonzero">
            <g id="lotterie_romande_black" transform="translate(735.000000, 9239.000000)">
                <path d="M12.0056447,25.9326923 C12.0056447,19.6153846 17.0971953,14.4519231 23.3748457,14.4519231 C29.652496,14.4519231 34.7729758,19.6153846 34.7729758,25.9326923 C34.7729758,32.25 29.652496,37.3847357 23.3748457,37.3847357 C17.1261245,37.4134615 12.0056447,32.25 12.0056447,25.9326923 Z M164,0 L164,57 L0,57 L0,0 L164,0 Z M5.40977245,22.2692308 C5.40977245,32.1923077 13.452108,40.2403846 23.4037749,40.2403846 C33.3554419,40.2403846 41.3977774,32.1923077 41.3977774,22.2692308 C41.3977774,12.3173077 33.3554419,4.26923077 23.4037749,4.26923077 C13.452108,4.26923077 5.40977245,12.3173077 5.40977245,22.2692308 Z M1.24395837,9.23076923 C3.09543129,6.05769231 5.64120656,3.34615385 8.6209208,1.24038462 L1.24395837,1.24038462 L1.24395837,9.23076923 Z M162.756042,1.24038462 L38.186629,1.24038462 C44.8114306,5.88461538 49.121891,13.5576923 49.121891,22.2692308 C49.121891,36.4615385 37.6080437,47.9711538 23.4037749,47.9711538 C13.9728347,47.9711538 5.72799436,42.8942308 1.24395837,35.3076923 L1.24395837,55.7596154 L162.756042,55.7596154 L162.756042,1.24038462 Z M72.9596049,11.5096154 L77.5014994,11.5096154 L77.5014994,21 L81.9566061,21 L81.9566061,24.8653846 L72.9596049,24.8653846 L72.9596049,11.5096154 L72.9596049,11.5096154 Z M83.6055742,18.1153846 C83.6055742,17.0480769 83.808079,16.0673077 84.1841595,15.2019231 C84.5602399,14.3365385 85.0809667,13.6153846 85.7463397,13.0096154 C86.4117128,12.4038462 87.192803,11.9423077 88.1185394,11.625 C89.0153466,11.3076923 89.9989416,11.1346154 91.0693244,11.1346154 C92.1397072,11.1346154 93.1233022,11.3076923 94.0201094,11.625 C94.9169166,11.9423077 95.726936,12.4326923 96.392309,13.0096154 C97.0576821,13.6153846 97.5784089,14.3365385 97.9544893,15.2019231 C98.3305698,16.0673077 98.5330746,17.0480769 98.5330746,18.1153846 C98.5330746,19.1826923 98.3305698,20.1634615 97.9544893,21.0576923 C97.5784089,21.9519231 97.0576821,22.7019231 96.392309,23.3076923 C95.726936,23.9423077 94.9458458,24.4038462 94.0201094,24.75 C93.1233022,25.0961538 92.1107779,25.2692308 91.0693244,25.2692308 C89.9989416,25.2692308 89.0153466,25.0961538 88.1185394,24.75 C87.2217322,24.4038462 86.4117128,23.9423077 85.7463397,23.3076923 C85.0809667,22.6730769 84.5602399,21.9230769 84.1841595,21.0576923 C83.808079,20.1634615 83.6055742,19.1826923 83.6055742,18.1153846 Z M88.4078321,18.1153846 C88.4078321,18.5480769 88.4656906,18.9519231 88.6103369,19.3269231 C88.7549832,19.7019231 88.9285588,20.0192308 89.1599929,20.2788462 C89.3914271,20.5384615 89.6807197,20.7403846 89.9989416,20.8846154 C90.3171635,21.0288462 90.693244,21.1153846 91.0693244,21.1153846 C91.4454048,21.1153846 91.792556,21.0576923 92.1107779,20.8846154 C92.4289998,20.7403846 92.7182925,20.5384615 92.9497266,20.2788462 C93.1811607,20.0192308 93.3836655,19.7019231 93.4993826,19.3269231 C93.6440289,18.9519231 93.7018875,18.5480769 93.7018875,18.1153846 C93.7018875,17.6826923 93.6440289,17.3076923 93.4993826,16.9326923 C93.3547363,16.5865385 93.1811607,16.2692308 92.9497266,16.0384615 C92.7182925,15.8076923 92.4289998,15.6057692 92.1107779,15.4615385 C91.792556,15.3173077 91.4454048,15.2596154 91.0693244,15.2596154 C90.693244,15.2596154 90.3460928,15.3173077 89.9989416,15.4615385 C89.6807197,15.6057692 89.3914271,15.8076923 89.1599929,16.0384615 C88.9285588,16.2692308 88.7549832,16.5865385 88.6103369,16.9326923 C88.4946199,17.3076923 88.4078321,17.6826923 88.4078321,18.1153846 Z M107.819368,24.8942308 L103.306403,24.8942308 L103.306403,15.2884615 L100.008467,15.2884615 L100.008467,11.5096154 L111.117305,11.5096154 L111.117305,15.2884615 L107.819368,15.2884615 L107.819368,24.8942308 Z M113.605221,11.5096154 L122.833657,11.5096154 L122.833657,15.2596154 L117.857823,15.2596154 L117.857823,16.4134615 L122.544364,16.4134615 L122.544364,19.9038462 L117.857823,19.9038462 L117.857823,21.1442308 L123.180808,21.1442308 L123.180808,24.8942308 L113.634151,24.8942308 L113.634151,11.5096154 L113.605221,11.5096154 Z M126.160522,11.5096154 L131.946375,11.5096154 C132.611748,11.5096154 133.248192,11.5673077 133.913565,11.7115385 C134.578938,11.8557692 135.157523,12.0865385 135.649321,12.4038462 C136.170048,12.75 136.575057,13.1826923 136.893279,13.7596154 C137.211501,14.3076923 137.356147,15.0288462 137.356147,15.8653846 C137.356147,16.6730769 137.153643,17.3942308 136.748633,18.0288462 C136.343623,18.6634615 135.765038,19.125 135.012877,19.4711538 L138.42653,24.8942308 L133.248192,24.8942308 L130.673487,20.1057692 L130.528841,20.1057692 L130.528841,24.8942308 L126.160522,24.8942308 L126.160522,11.5096154 L126.160522,11.5096154 Z M130.499912,17.1634615 L131.396719,17.1634615 C131.541365,17.1634615 131.714941,17.1634615 131.888516,17.1346154 C132.062092,17.1057692 132.235668,17.0480769 132.409243,16.9615385 C132.55389,16.875 132.698536,16.7596154 132.814253,16.6153846 C132.92997,16.4711538 132.987829,16.2692308 132.987829,16.0384615 C132.987829,15.8076923 132.92997,15.6057692 132.843182,15.4615385 C132.756394,15.3173077 132.640677,15.2307692 132.496031,15.1442308 C132.351385,15.0865385 132.206738,15.0288462 132.062092,15 C131.888516,14.9711538 131.74387,14.9711538 131.599224,14.9711538 L130.528841,14.9711538 L130.528841,17.1634615 L130.499912,17.1634615 Z M140.104428,11.5096154 L144.646322,11.5096154 L144.646322,24.8942308 L140.104428,24.8942308 L140.104428,11.5096154 Z M147.510319,11.5096154 L156.738755,11.5096154 L156.738755,15.2596154 L151.762921,15.2596154 L151.762921,16.4134615 L156.449462,16.4134615 L156.449462,19.9038462 L151.762921,19.9038462 L151.762921,21.1442308 L157.085906,21.1442308 L157.085906,24.8942308 L147.539249,24.8942308 L147.539249,11.5096154 L147.510319,11.5096154 Z M52.8826954,31.0384615 L58.639619,31.0384615 C59.3049921,31.0384615 59.9414359,31.0961538 60.606809,31.2403846 C61.2432528,31.3846154 61.8218381,31.6153846 62.3425648,31.9326923 C62.8632916,32.2788462 63.2683013,32.7115385 63.5865232,33.2884615 C63.9047451,33.8365385 64.0493914,34.5576923 64.0493914,35.3942308 C64.0493914,36.2019231 63.8468866,36.9230769 63.4418769,37.5576923 C63.0368672,38.1923077 62.4582819,38.6538462 61.706121,39 L65.0908449,44.4230769 L59.9125066,44.4230769 L57.3378021,39.6634615 L57.1931558,39.6634615 L57.1931558,44.4230769 L52.8248368,44.4230769 L52.8248368,31.0384615 L52.8826954,31.0384615 Z M57.222085,36.6634615 L58.089963,36.6634615 C58.2346093,36.6634615 58.4081849,36.6634615 58.5817605,36.6346154 C58.755336,36.6057692 58.9289116,36.5480769 59.0735579,36.4615385 C59.2182043,36.375 59.3628506,36.2596154 59.4785676,36.1153846 C59.5942847,35.9711538 59.623214,35.7692308 59.623214,35.5384615 C59.623214,35.3076923 59.5653554,35.1057692 59.4785676,34.9615385 C59.3917799,34.8173077 59.2760628,34.7307692 59.1314165,34.6442308 C58.9867702,34.5865385 58.8421238,34.5288462 58.6685482,34.5 C58.4949727,34.4711538 58.3503263,34.4711538 58.20568,34.4711538 L57.1352972,34.4711538 L57.1352972,36.6634615 L57.222085,36.6634615 Z M65.8430058,37.6442308 C65.8430058,36.5769231 66.0455107,35.625 66.4215911,34.7596154 C66.7976715,33.8942308 67.3183983,33.1730769 67.9837714,32.5673077 C68.6491445,31.9615385 69.4302346,31.5 70.3270418,31.1826923 C71.223849,30.8653846 72.2363733,30.6923077 73.2778268,30.6923077 C74.3482096,30.6923077 75.3318046,30.8653846 76.2286117,31.1826923 C77.1254189,31.5 77.9354383,31.9615385 78.6008114,32.5673077 C79.2661845,33.1730769 79.7869113,33.8942308 80.1629917,34.7596154 C80.5390721,35.625 80.741577,36.5769231 80.741577,37.6442308 C80.741577,38.7115385 80.5390721,39.6923077 80.1629917,40.5576923 C79.7869113,41.4519231 79.2661845,42.2019231 78.6008114,42.8076923 C77.9354383,43.4423077 77.1543482,43.9038462 76.2286117,44.25 C75.3318046,44.5961538 74.3482096,44.7692308 73.2778268,44.7692308 C72.207444,44.7692308 71.223849,44.5961538 70.3270418,44.25 C69.4302346,43.9038462 68.6491445,43.4423077 67.9837714,42.8076923 C67.3183983,42.1730769 66.7976715,41.4230769 66.4215911,40.5576923 C66.0165814,39.6923077 65.8430058,38.7115385 65.8430058,37.6442308 Z M70.6163345,37.6442308 C70.6163345,38.0769231 70.674193,38.4807692 70.8188393,38.8557692 C70.9634856,39.2307692 71.1370612,39.5480769 71.3684953,39.8076923 C71.5999294,40.0673077 71.8892221,40.2692308 72.207444,40.4134615 C72.5256659,40.5576923 72.9017463,40.6442308 73.2778268,40.6442308 C73.6539072,40.6442308 74.0010584,40.5576923 74.3192803,40.4134615 C74.6375022,40.2692308 74.9267948,40.0673077 75.158229,39.8076923 C75.3896631,39.5480769 75.5921679,39.2307692 75.707885,38.8557692 C75.823602,38.4807692 75.9103898,38.0769231 75.9103898,37.6442308 C75.9103898,37.2115385 75.8525313,36.8365385 75.707885,36.4615385 C75.5632387,36.1153846 75.3896631,35.7980769 75.158229,35.5673077 C74.9267948,35.3365385 74.6375022,35.1346154 74.3192803,34.9903846 C74.0010584,34.8461538 73.6539072,34.7884615 73.2778268,34.7884615 C72.9017463,34.7884615 72.5545952,34.8461538 72.207444,34.9903846 C71.8892221,35.1346154 71.5999294,35.3365385 71.3684953,35.5673077 C71.1370612,35.8269231 70.9634856,36.1153846 70.8188393,36.4615385 C70.674193,36.8076923 70.6163345,37.2115385 70.6163345,37.6442308 Z M86.6142177,36.8365385 L86.8167225,44.3942308 L82.6219792,44.3942308 L82.6219792,31.0384615 L88.5235491,31.0384615 L90.9536073,38.2211538 L91.0403951,38.2211538 L93.1522314,31.0384615 L99.227377,31.0384615 L99.227377,44.3942308 L94.8301288,44.3942308 L94.9747751,36.8942308 L94.859058,36.8653846 L92.3711413,44.3942308 L89.1889222,44.3942308 L86.7299347,36.8365385 L86.6142177,36.8365385 L86.6142177,36.8365385 Z M106.083613,31.0384615 L110.856941,31.0384615 L116.064209,44.3942308 L111.175163,44.3942308 L110.480861,42.4326923 L106.228259,42.4326923 L105.562886,44.3942308 L100.789557,44.3942308 L106.083613,31.0384615 Z M108.397954,35.6826923 L107.298642,39 L109.468337,39 L108.397954,35.6826923 Z M117.684248,31.0384615 L122.168284,31.0384615 L125.986947,37.8173077 L126.073734,37.8173077 L125.900159,31.0384615 L130.18169,31.0384615 L130.18169,44.3942308 L125.553008,44.3942308 L121.850062,38.0192308 L121.763274,38.0192308 L121.965779,44.3942308 L117.684248,44.3942308 L117.684248,31.0384615 L117.684248,31.0384615 Z M132.640677,44.3942308 L132.640677,31.0384615 L137.64544,31.0384615 C138.715823,31.0384615 139.728347,31.1538462 140.683013,31.3557692 C141.637679,31.5576923 142.505557,31.9326923 143.228788,32.4230769 C143.980949,32.9423077 144.559534,33.6057692 144.993473,34.4423077 C145.427412,35.2788462 145.658846,36.3461538 145.658846,37.6153846 C145.658846,38.7980769 145.456342,39.8076923 145.022403,40.6442308 C144.588464,41.5096154 144.038808,42.2019231 143.315576,42.75 C142.621274,43.2980769 141.782325,43.7019231 140.885518,43.9615385 C139.959781,44.2211538 139.005116,44.3653846 138.021521,44.3653846 L132.640677,44.3653846 L132.640677,44.3942308 Z M136.980067,34.8461538 L136.980067,40.5288462 L137.819016,40.5288462 C138.889398,40.5288462 139.699418,40.2980769 140.249074,39.8365385 C140.827659,39.375 141.088023,38.625 141.088023,37.5865385 C141.088023,36.7211538 140.79873,36.0576923 140.249074,35.5673077 C139.670489,35.0769231 138.918328,34.8461538 137.963662,34.8461538 L136.980067,34.8461538 L136.980067,34.8461538 Z M147.539249,31.0384615 L156.738755,31.0384615 L156.738755,34.7596154 L151.762921,34.7596154 L151.762921,35.9134615 L156.420533,35.9134615 L156.420533,39.4038462 L151.762921,39.4038462 L151.762921,40.6442308 L157.085906,40.6442308 L157.085906,44.3653846 L147.539249,44.3653846 L147.539249,31.0384615 Z" id="Shape"></path>
            </g>
        </g>
    </g>
</svg>